<svg width="48" height="48" viewBox="0 0 48 48" fill="none" xmlns="http://www.w3.org/2000/svg">
<path fill-rule="evenodd" clip-rule="evenodd" d="M17.2941 4.5C17.1851 4.5 17.0791 4.5356 16.9923 4.60138L12.9056 7.69585C12.2451 8.19595 11.3043 8.06596 10.8042 7.40551C10.3041 6.74506 10.4341 5.80425 11.0946 5.30415L15.1812 2.20969C15.7894 1.7492 16.5313 1.5 17.2941 1.5H31.6445H41.0001C41.8285 1.5 42.5001 2.17157 42.5001 3C42.5001 3.82843 41.8285 4.5 41.0001 4.5H33.6445C33.3684 4.5 33.1445 4.72386 33.1445 5V5.5C33.1445 5.77614 33.3684 6 33.6445 6H37.0001C38.1047 6 39.0001 6.89543 39.0001 8V12.5C39.0001 12.7761 39.2239 13 39.5001 13H43.0001C44.1047 13 45.0001 13.8954 45.0001 15V30V38V46C45.0001 47.1046 44.1047 48 43.0001 48H20.0001C18.8955 48 18.0001 47.1046 18.0001 46V38V30V15C18.0001 13.8954 18.8955 13 20.0001 13H23.5001C23.7762 13 24.0001 12.7761 24.0001 12.5V8C24.0001 6.89543 24.8955 6 26.0001 6H29.6445C29.9207 6 30.1445 5.77614 30.1445 5.5V5C30.1445 4.72386 29.9207 4.5 29.6445 4.5H17.2941ZM42.0001 27.5C42.0001 27.7761 41.7762 28 41.5001 28H21.5001C21.2239 28 21.0001 27.7761 21.0001 27.5V16.5C21.0001 16.2239 21.2239 16 21.5001 16H26.0001H37.0001H41.5001C41.7762 16 42.0001 16.2239 42.0001 16.5V27.5ZM21.0001 31.5C21.0001 31.2239 21.2239 31 21.5001 31H41.5001C41.7762 31 42.0001 31.2239 42.0001 31.5V36.5C42.0001 36.7761 41.7762 37 41.5001 37H21.5001C21.2239 37 21.0001 36.7761 21.0001 36.5V31.5ZM41.5001 40C41.7762 40 42.0001 40.2239 42.0001 40.5V44.5C42.0001 44.7761 41.7762 45 41.5001 45H21.5001C21.2239 45 21.0001 44.7761 21.0001 44.5V40.5C21.0001 40.2239 21.2239 40 21.5001 40H41.5001ZM35.5001 13C35.7762 13 36.0001 12.7761 36.0001 12.5V9.5C36.0001 9.22386 35.7762 9 35.5001 9H27.5001C27.2239 9 27.0001 9.22386 27.0001 9.5V12.5C27.0001 12.7761 27.2239 13 27.5001 13H35.5001ZM9.80251 14L11.0123 13.1132C10.7297 12.7277 10.2804 12.5 9.80251 12.5C9.3246 12.5 8.8753 12.7277 8.59275 13.1132L9.80251 14ZM8.70784 18.5038C9.0854 17.8342 9.46388 17.2137 9.80251 16.6814C10.1411 17.2137 10.5196 17.8342 10.8972 18.5038C11.4766 19.5314 12.0401 20.65 12.4552 21.7259C12.8787 22.8237 13.105 23.7693 13.105 24.4822C13.105 25.5146 12.728 26.4812 12.0925 27.1748C11.461 27.8639 10.634 28.2232 9.80251 28.2232C8.97103 28.2232 8.14404 27.8639 7.51254 27.1748C6.87703 26.4812 6.5 25.5146 6.5 24.4822C6.5 23.7693 6.72632 22.8237 7.14985 21.7259C7.56495 20.65 8.1284 19.5314 8.70784 18.5038ZM8.59244 13.1136C8.5926 13.1134 8.59275 13.1132 9.80251 14C11.0123 13.1132 11.0124 13.1134 11.0126 13.1136L11.013 13.1141L11.0142 13.1157L11.0178 13.1207L11.0301 13.1376L11.0745 13.1991C11.1126 13.2521 11.1672 13.3287 11.236 13.4266C11.3736 13.6223 11.5683 13.9039 11.8011 14.2532C12.2657 14.9504 12.887 15.9248 13.5104 17.0303C14.1315 18.1319 14.7687 19.3881 15.2541 20.6461C15.731 21.8823 16.105 23.2296 16.105 24.4822C16.105 26.2297 15.4701 27.9293 14.3043 29.2015C13.1345 30.4782 11.5184 31.2232 9.80251 31.2232C8.08658 31.2232 6.4705 30.4782 5.3007 29.2015C4.13493 27.9293 3.5 26.2297 3.5 24.4822C3.5 23.2296 3.874 21.8823 4.35094 20.6461C4.8363 19.3881 5.47348 18.1319 6.09467 17.0303C6.71805 15.9248 7.33928 14.9504 7.8039 14.2532C8.0367 13.9039 8.2314 13.6223 8.369 13.4266C8.43783 13.3287 8.49246 13.2521 8.53052 13.1991L8.57492 13.1376L8.58726 13.1207L8.59088 13.1157L8.59203 13.1141L8.59244 13.1136Z" fill="#1C1814"/>
</svg>
