<svg width="48" height="48" viewBox="0 0 48 48" fill="none" xmlns="http://www.w3.org/2000/svg">
<path fill-rule="evenodd" clip-rule="evenodd" d="M45 13C45 12.4477 44.5523 12 44 12H4C3.44772 12 3 12.4477 3 13V27C3 27.5523 3.44772 28 4 28H6C6.55228 28 7 27.5523 7 27V23V21C7 20.4477 7.44772 20 8 20H10H38H40C40.5523 20 41 20.4477 41 21V23V27C41 27.5523 41.4477 28 42 28H44C44.5523 28 45 27.5523 45 27V13ZM38 27C38 27.5523 37.5523 28 37 28H11C10.4477 28 10 27.5523 10 27V24C10 23.4477 10.4477 23 11 23H37C37.5523 23 38 23.4477 38 24V27ZM3 31H7H10H38H41H45H47C47.5523 31 48 30.5523 48 30V28V12V10C48 9.44772 47.5523 9 47 9H45H3H1C0.447715 9 0 9.44772 0 10V12V28V30C0 30.5523 0.447715 31 1 31H3ZM23.5 34C22.9477 34 22.5 34.4477 22.5 35V47C22.5 47.5523 22.9477 48 23.5 48H24.5C25.0523 48 25.5 47.5523 25.5 47V35C25.5 34.4477 25.0523 34 24.5 34H23.5ZM29.4229 39.6404C28.8178 37.969 28.5954 36.2923 28.5267 34.9994C28.4973 34.4479 28.9477 34 29.5 34L30.5 34C31.0523 34 31.4969 34.448 31.5317 34.9992C31.5989 36.0605 31.7884 37.3614 32.2437 38.6192C32.7438 40.0006 33.5371 41.2636 34.7925 42.1444C35.2446 42.4616 35.4589 43.0531 35.2181 43.55L34.7819 44.4499C34.5411 44.9469 33.9389 45.1592 33.4705 44.8666C31.3419 43.5369 30.1158 41.5544 29.4229 39.6404ZM18.5 34C19.0523 34 19.5027 34.4479 19.4733 34.9994C19.4046 36.2923 19.1822 37.969 18.5771 39.6404C17.8842 41.5544 16.6581 43.5369 14.5295 44.8666C14.0611 45.1592 13.4589 44.9469 13.2181 44.4499L12.7819 43.55C12.5411 43.0531 12.7554 42.4616 13.2075 42.1444C14.4629 41.2636 15.2562 40.0006 15.7563 38.6192C16.2116 37.3614 16.4011 36.0605 16.4683 34.9992C16.5031 34.448 16.9477 34 17.5 34L18.5 34ZM43 15.5C43 16.3284 42.3284 17 41.5 17C40.6716 17 40 16.3284 40 15.5C40 14.6716 40.6716 14 41.5 14C42.3284 14 43 14.6716 43 15.5ZM37.5 17C38.3284 17 39 16.3284 39 15.5C39 14.6716 38.3284 14 37.5 14C36.6716 14 36 14.6716 36 15.5C36 16.3284 36.6716 17 37.5 17Z" fill="#1C1814"/>
</svg>
