<svg width="48" height="48" viewBox="0 0 48 48" fill="none" xmlns="http://www.w3.org/2000/svg">
<circle cx="22" cy="22" r="20.5" stroke="#1C1814" stroke-width="3"/>
<circle cx="22" cy="22" r="10.5" stroke="#1C1814" stroke-width="3"/>
<mask id="path-3-outside-1_735_1045" maskUnits="userSpaceOnUse" x="29.1086" y="4.01465" width="19" height="44" fill="black">
<rect fill="white" x="29.1086" y="4.01465" width="19" height="44"/>
<path fill-rule="evenodd" clip-rule="evenodd" d="M45.8954 5.02629C46.4402 4.9352 46.8913 5.39166 46.8913 5.94394V27.6212C46.8913 27.6761 46.8467 27.7206 46.7918 27.7206C46.7369 27.7206 46.6924 27.7652 46.6924 27.8201V45.9011C46.6924 46.4533 46.2447 46.9011 45.6924 46.9011C45.1401 46.9011 44.6924 46.4533 44.6924 45.9011V28.7206C44.6924 28.1684 44.2447 27.7206 43.6924 27.7206H41.8974C41.3451 27.7206 40.8974 27.2729 40.8974 26.7206V10.9378C40.8974 7.96674 43.0591 5.50057 45.8954 5.02629ZM36.7019 13.4343C36.261 13.4343 35.9036 13.077 35.9036 12.6361V6.04293C35.9036 5.49064 35.4559 5.04293 34.9036 5.04293C34.3514 5.04293 33.9036 5.49064 33.9036 6.04293V12.6362C33.9036 13.077 33.5463 13.4343 33.1055 13.4343C32.6648 13.4343 32.3074 13.077 32.3074 12.6362V6.04293C32.3074 5.49064 31.8597 5.04293 31.3074 5.04293C30.7552 5.04293 30.3074 5.49064 30.3074 6.04293V13.5031C30.3074 13.6787 30.2505 13.8473 30.194 14.0147C30.181 14.0533 30.168 14.0917 30.1557 14.1302C30.1251 14.2261 30.1086 14.3283 30.1086 14.4343V18.4282C30.1086 18.9805 30.5564 19.4282 31.1086 19.4282H32.9036C33.4559 19.4282 33.9036 19.8759 33.9036 20.4282V46C33.9036 46.5523 34.3514 47 34.9036 47C35.4559 47 35.9036 46.5523 35.9036 46V20.4282C35.9036 19.8759 36.3514 19.4282 36.9036 19.4282H38.6988C39.2511 19.4282 39.6988 18.9805 39.6988 18.4282V14.4343C39.6988 14.3283 39.6823 14.2261 39.6517 14.1302C39.6395 14.0918 39.6265 14.0533 39.6135 14.0148C39.557 13.8473 39.5001 13.6788 39.5001 13.5032V6.04293C39.5001 5.49064 39.0523 5.04293 38.5001 5.04293C37.9478 5.04293 37.5001 5.49064 37.5001 6.04293V12.6361C37.5001 13.077 37.1427 13.4343 36.7019 13.4343Z"/>
</mask>
<path fill-rule="evenodd" clip-rule="evenodd" d="M45.8954 5.02629C46.4402 4.9352 46.8913 5.39166 46.8913 5.94394V27.6212C46.8913 27.6761 46.8467 27.7206 46.7918 27.7206C46.7369 27.7206 46.6924 27.7652 46.6924 27.8201V45.9011C46.6924 46.4533 46.2447 46.9011 45.6924 46.9011C45.1401 46.9011 44.6924 46.4533 44.6924 45.9011V28.7206C44.6924 28.1684 44.2447 27.7206 43.6924 27.7206H41.8974C41.3451 27.7206 40.8974 27.2729 40.8974 26.7206V10.9378C40.8974 7.96674 43.0591 5.50057 45.8954 5.02629ZM36.7019 13.4343C36.261 13.4343 35.9036 13.077 35.9036 12.6361V6.04293C35.9036 5.49064 35.4559 5.04293 34.9036 5.04293C34.3514 5.04293 33.9036 5.49064 33.9036 6.04293V12.6362C33.9036 13.077 33.5463 13.4343 33.1055 13.4343C32.6648 13.4343 32.3074 13.077 32.3074 12.6362V6.04293C32.3074 5.49064 31.8597 5.04293 31.3074 5.04293C30.7552 5.04293 30.3074 5.49064 30.3074 6.04293V13.5031C30.3074 13.6787 30.2505 13.8473 30.194 14.0147C30.181 14.0533 30.168 14.0917 30.1557 14.1302C30.1251 14.2261 30.1086 14.3283 30.1086 14.4343V18.4282C30.1086 18.9805 30.5564 19.4282 31.1086 19.4282H32.9036C33.4559 19.4282 33.9036 19.8759 33.9036 20.4282V46C33.9036 46.5523 34.3514 47 34.9036 47C35.4559 47 35.9036 46.5523 35.9036 46V20.4282C35.9036 19.8759 36.3514 19.4282 36.9036 19.4282H38.6988C39.2511 19.4282 39.6988 18.9805 39.6988 18.4282V14.4343C39.6988 14.3283 39.6823 14.2261 39.6517 14.1302C39.6395 14.0918 39.6265 14.0533 39.6135 14.0148C39.557 13.8473 39.5001 13.6788 39.5001 13.5032V6.04293C39.5001 5.49064 39.0523 5.04293 38.5001 5.04293C37.9478 5.04293 37.5001 5.49064 37.5001 6.04293V12.6361C37.5001 13.077 37.1427 13.4343 36.7019 13.4343Z" fill="#1C1814"/>
<path d="M45.8954 5.02629L45.813 4.53313L45.813 4.53313L45.8954 5.02629ZM30.194 14.0147L29.7203 13.8548L29.7203 13.8548L30.194 14.0147ZM30.1557 14.1302L29.6794 13.9783L29.6794 13.9783L30.1557 14.1302ZM39.6517 14.1302L40.1281 13.9783L40.1281 13.9783L39.6517 14.1302ZM39.6135 14.0148L39.1398 14.1747L39.1398 14.1747L39.6135 14.0148ZM47.3913 5.94394C47.3913 5.14283 46.7192 4.38161 45.813 4.53313L45.9779 5.51944C46.1612 5.4888 46.3913 5.64049 46.3913 5.94394H47.3913ZM47.3913 27.6212V5.94394H46.3913V27.6212H47.3913ZM46.7918 28.2206C47.1229 28.2206 47.3913 27.9523 47.3913 27.6212H46.3913C46.3913 27.4 46.5706 27.2206 46.7918 27.2206V28.2206ZM47.1924 27.8201C47.1924 28.0413 47.013 28.2206 46.7918 28.2206V27.2206C46.4608 27.2206 46.1924 27.489 46.1924 27.8201H47.1924ZM47.1924 45.9011V27.8201H46.1924V45.9011H47.1924ZM45.6924 47.4011C46.5208 47.4011 47.1924 46.7295 47.1924 45.9011H46.1924C46.1924 46.1772 45.9685 46.4011 45.6924 46.4011V47.4011ZM44.1924 45.9011C44.1924 46.7295 44.864 47.4011 45.6924 47.4011V46.4011C45.4162 46.4011 45.1924 46.1772 45.1924 45.9011H44.1924ZM44.1924 28.7206V45.9011H45.1924V28.7206H44.1924ZM43.6924 28.2206C43.9685 28.2206 44.1924 28.4445 44.1924 28.7206H45.1924C45.1924 27.8922 44.5208 27.2206 43.6924 27.2206V28.2206ZM41.8974 28.2206H43.6924V27.2206H41.8974V28.2206ZM40.3974 26.7206C40.3974 27.5491 41.069 28.2206 41.8974 28.2206V27.2206C41.6212 27.2206 41.3974 26.9968 41.3974 26.7206H40.3974ZM40.3974 10.9378V26.7206H41.3974V10.9378H40.3974ZM45.813 4.53313C42.7396 5.04704 40.3974 7.7184 40.3974 10.9378H41.3974C41.3974 8.21508 43.3785 5.95409 45.9779 5.51944L45.813 4.53313ZM35.4036 12.6361C35.4036 13.3531 35.9849 13.9343 36.7019 13.9343V12.9343C36.5372 12.9343 36.4036 12.8008 36.4036 12.6361H35.4036ZM35.4036 6.04293V12.6361H36.4036V6.04293H35.4036ZM34.9036 5.54293C35.1798 5.54293 35.4036 5.76679 35.4036 6.04293H36.4036C36.4036 5.2145 35.7321 4.54293 34.9036 4.54293V5.54293ZM34.4036 6.04293C34.4036 5.76679 34.6275 5.54293 34.9036 5.54293V4.54293C34.0752 4.54293 33.4036 5.2145 33.4036 6.04293H34.4036ZM34.4036 12.6362V6.04293H33.4036V12.6362H34.4036ZM33.1055 13.9343C33.8225 13.9343 34.4036 13.3532 34.4036 12.6362H33.4036C33.4036 12.8009 33.2702 12.9343 33.1055 12.9343V13.9343ZM31.8074 12.6362C31.8074 13.3532 32.3886 13.9343 33.1055 13.9343V12.9343C32.9409 12.9343 32.8074 12.8009 32.8074 12.6362H31.8074ZM31.8074 6.04293V12.6362H32.8074V6.04293H31.8074ZM31.3074 5.54293C31.5836 5.54293 31.8074 5.76679 31.8074 6.04293H32.8074C32.8074 5.2145 32.1359 4.54293 31.3074 4.54293V5.54293ZM30.8074 6.04293C30.8074 5.76679 31.0313 5.54293 31.3074 5.54293V4.54293C30.479 4.54293 29.8074 5.2145 29.8074 6.04293H30.8074ZM30.8074 13.5031V6.04293H29.8074V13.5031H30.8074ZM30.6677 14.1747C30.7193 14.0218 30.8074 13.7748 30.8074 13.5031H29.8074C29.8074 13.5826 29.7817 13.6728 29.7203 13.8548L30.6677 14.1747ZM30.6321 14.2821C30.6429 14.2483 30.6545 14.2139 30.6677 14.1747L29.7203 13.8548C29.7075 13.8926 29.6931 13.9351 29.6794 13.9783L30.6321 14.2821ZM30.6086 14.4343C30.6086 14.3805 30.617 14.3295 30.6321 14.2821L29.6794 13.9783C29.6333 14.1227 29.6086 14.2761 29.6086 14.4343H30.6086ZM30.6086 18.4282V14.4343H29.6086V18.4282H30.6086ZM31.1086 18.9282C30.8325 18.9282 30.6086 18.7044 30.6086 18.4282H29.6086C29.6086 19.2566 30.2802 19.9282 31.1086 19.9282V18.9282ZM32.9036 18.9282H31.1086V19.9282H32.9036V18.9282ZM34.4036 20.4282C34.4036 19.5998 33.7321 18.9282 32.9036 18.9282V19.9282C33.1798 19.9282 33.4036 20.1521 33.4036 20.4282H34.4036ZM34.4036 46V20.4282H33.4036V46H34.4036ZM34.9036 46.5C34.6275 46.5 34.4036 46.2762 34.4036 46H33.4036C33.4036 46.8284 34.0752 47.5 34.9036 47.5V46.5ZM35.4036 46C35.4036 46.2762 35.1798 46.5 34.9036 46.5V47.5C35.7321 47.5 36.4036 46.8284 36.4036 46H35.4036ZM35.4036 20.4282V46H36.4036V20.4282H35.4036ZM36.9036 18.9282C36.0752 18.9282 35.4036 19.5998 35.4036 20.4282H36.4036C36.4036 20.1521 36.6275 19.9282 36.9036 19.9282V18.9282ZM38.6988 18.9282H36.9036V19.9282H38.6988V18.9282ZM39.1988 18.4282C39.1988 18.7044 38.975 18.9282 38.6988 18.9282V19.9282C39.5273 19.9282 40.1988 19.2566 40.1988 18.4282H39.1988ZM39.1988 14.4343V18.4282H40.1988V14.4343H39.1988ZM39.1754 14.2821C39.1905 14.3295 39.1988 14.3805 39.1988 14.4343H40.1988C40.1988 14.2762 40.1742 14.1228 40.1281 13.9783L39.1754 14.2821ZM39.1398 14.1747C39.153 14.2139 39.1646 14.2484 39.1754 14.2821L40.1281 13.9783C40.1143 13.9351 40.1 13.8927 40.0872 13.8548L39.1398 14.1747ZM39.0001 13.5032C39.0001 13.7749 39.0882 14.0218 39.1398 14.1747L40.0872 13.8548C40.0258 13.6728 40.0001 13.5827 40.0001 13.5032H39.0001ZM39.0001 6.04293V13.5032H40.0001V6.04293H39.0001ZM38.5001 5.54293C38.7762 5.54293 39.0001 5.76679 39.0001 6.04293H40.0001C40.0001 5.2145 39.3285 4.54293 38.5001 4.54293V5.54293ZM38.0001 6.04293C38.0001 5.76679 38.2239 5.54293 38.5001 5.54293V4.54293C37.6716 4.54293 37.0001 5.2145 37.0001 6.04293H38.0001ZM38.0001 12.6361V6.04293H37.0001V12.6361H38.0001ZM36.7019 13.9343C37.4188 13.9343 38.0001 13.3531 38.0001 12.6361H37.0001C37.0001 12.8008 36.8665 12.9343 36.7019 12.9343V13.9343Z" fill="white" mask="url(#path-3-outside-1_735_1045)"/>
</svg>
