<svg width="48" height="48" viewBox="0 0 48 48" fill="none" xmlns="http://www.w3.org/2000/svg">
<path fill-rule="evenodd" clip-rule="evenodd" d="M24.9999 4.98883C24.9924 4.4366 24.5386 3.99391 23.9863 4.00006C23.4341 4.00622 22.9925 4.45888 23.0001 5.01111L23.2032 19.8606L18.9516 6.69271C18.7819 6.16714 18.2183 5.87865 17.6927 6.04834C17.1672 6.21804 16.8787 6.78166 17.0484 7.30723L21.4694 21H21C19.8954 21 19 21.8954 19 23V26H17C12.5817 26 9 29.5817 9 34V45V47C9 47.5523 9.44772 48 10 48H12H37H39C39.5523 48 40 47.5523 40 47V45V34C40 29.5817 36.4183 26 32 26H30V23C30 21.8954 29.1046 21 28 21H26.8193L31.2205 7.60472C31.3929 7.08003 31.1024 6.53084 30.5717 6.37806C30.0409 6.22529 29.4709 6.52678 29.2985 7.05147L25.1989 19.5291L24.9999 4.98883ZM23.0783 25.9831L22.438 24H22V26H23.0728L23.0783 25.9831ZM22.0871 29H21H17C14.2386 29 12 31.2385 12 34V44C12 44.5523 12.4477 45 13 45H36C36.5523 45 37 44.5523 37 44V34C37 31.2385 34.7614 29 32 29H28H26.1541L28.4142 36H35C35.5523 36 36 36.4477 36 37V43C36 43.5523 35.5523 44 35 44H14C13.4477 44 13 43.5523 13 43V37C13 36.4477 13.4477 36 14 36H19.7871L22.0871 29ZM21.8909 36H23.424L23.3627 31.5203L21.8909 36ZM25.2829 25.676L25.2874 26H27V24H25.8336L25.2829 25.676ZM26.3125 36L25.3849 33.1269L25.4242 36H26.3125Z" fill="#1C1814"/>
</svg>
