<svg width="48" height="48" viewBox="0 0 48 48" fill="none" xmlns="http://www.w3.org/2000/svg">
<path fill-rule="evenodd" clip-rule="evenodd" d="M41.5 8.15495C41.5 7.86643 41.7435 7.63778 42.0315 7.65594L44.5315 7.81356C44.7949 7.83016 45 8.04864 45 8.31257V19.8141C45 20.0829 44.7875 20.3036 44.5189 20.3137L42.0189 20.4083C41.7355 20.419 41.5 20.1922 41.5 19.9086V8.15495ZM38.5 7.90275C38.5 7.63883 38.2949 7.42035 38.0315 7.40374L10.4405 5.66418C6.4092 5.41002 3 8.61105 3 12.6503V14.6145C3 18.5843 6.29769 21.7596 10.2646 21.6095L38.0189 20.5596C38.2875 20.5494 38.5 20.3288 38.5 20.06V7.90275ZM0 12.6503C0 6.87993 4.87029 2.30703 10.6292 2.67012L46.1258 4.90812C47.1795 4.97455 48 5.84845 48 6.90416V21.2584C48 22.3336 47.15 23.2163 46.0756 23.257L19.2085 24.2733C18.9093 24.2847 18.687 24.5547 18.7335 24.8505L21.5052 42.4993C21.9119 45.0895 20.1419 47.5191 17.5517 47.9258C14.9614 48.3326 12.5319 46.5626 12.1251 43.9724L9.13899 24.9582C9.10344 24.7319 8.91807 24.56 8.69088 24.5303C3.80578 23.8921 0 19.7117 0 14.6145V12.6503ZM12.6727 24.5206C12.3735 24.5319 12.1512 24.8019 12.1977 25.0978L15.0888 43.5069C15.2385 44.4604 16.1328 45.1119 17.0862 44.9622C18.0397 44.8124 18.6912 43.9181 18.5415 42.9647L15.6963 24.8477C15.657 24.5974 15.4366 24.416 15.1834 24.4256L12.6727 24.5206ZM10.5 16C11.8807 16 13 14.8807 13 13.5C13 12.1193 11.8807 11 10.5 11C9.11929 11 8 12.1193 8 13.5C8 14.8807 9.11929 16 10.5 16ZM10.5 19C13.5376 19 16 16.5375 16 13.5C16 10.4624 13.5376 7.99997 10.5 7.99997C7.46243 7.99997 5 10.4624 5 13.5C5 16.5375 7.46243 19 10.5 19Z" fill="#1C1814"/>
</svg>
