<svg width="48" height="48" viewBox="0 0 48 48" fill="none" xmlns="http://www.w3.org/2000/svg">
<path fill-rule="evenodd" clip-rule="evenodd" d="M4 38C3.44772 38 3 37.5523 3 37V11C3 10.4477 3.44772 10 4 10H44C44.5523 10 45 10.4477 45 11V37C45 37.5523 44.5523 38 44 38H4ZM0 9C0 7.89543 0.895431 7 2 7H46C47.1046 7 48 7.89543 48 9V39C48 40.1046 47.1046 41 46 41H2C0.895431 41 0 40.1046 0 39V9ZM8 33.8788C7.44772 33.8788 7 33.4311 7 32.8788V15.1212C7 14.5689 7.44772 14.1212 8 14.1212H30C30.5523 14.1212 31 14.5689 31 15.1212V32.8788C31 33.4311 30.5523 33.8788 30 33.8788H8ZM4 13.1212C4 12.0166 4.89543 11.1212 6 11.1212H32C33.1046 11.1212 34 12.0166 34 13.1212V34.8788C34 35.9834 33.1046 36.8788 32 36.8788H6C4.89543 36.8788 4 35.9834 4 34.8788V13.1212ZM39.5 17.3636C40.2726 17.3636 41 16.7013 41 15.7576C41 14.8139 40.2726 14.1515 39.5 14.1515C38.7274 14.1515 38 14.8139 38 15.7576C38 16.7013 38.7274 17.3636 39.5 17.3636ZM39.5 19.3636C41.433 19.3636 43 17.7491 43 15.7576C43 13.766 41.433 12.1515 39.5 12.1515C37.567 12.1515 36 13.766 36 15.7576C36 17.7491 37.567 19.3636 39.5 19.3636ZM41 25.0303C41 25.974 40.2726 26.6364 39.5 26.6364C38.7274 26.6364 38 25.974 38 25.0303C38 24.0866 38.7274 23.4242 39.5 23.4242C40.2726 23.4242 41 24.0866 41 25.0303ZM43 25.0303C43 27.0219 41.433 28.6364 39.5 28.6364C37.567 28.6364 36 27.0219 36 25.0303C36 23.0387 37.567 21.4242 39.5 21.4242C41.433 21.4242 43 23.0387 43 25.0303Z" fill="#1C1814"/>
</svg>
