<svg width="48" height="48" viewBox="0 0 48 48" fill="none" xmlns="http://www.w3.org/2000/svg">
<path fill-rule="evenodd" clip-rule="evenodd" d="M13 4C13 3.44772 13.4477 3 14 3H34C34.5523 3 35 3.44772 35 4V17.5C35 18.0523 34.5523 18.5 34 18.5H14C13.4477 18.5 13 18.0523 13 17.5V4ZM14 21.5C13.4477 21.5 13 21.9477 13 22.5V44C13 44.5523 13.4477 45 14 45H34C34.5523 45 35 44.5523 35 44V22.5C35 21.9477 34.5523 21.5 34 21.5H14ZM10 1C10 0.447715 10.4477 0 11 0H13H35H37C37.5523 0 38 0.447715 38 1V3V45V47C38 47.5523 37.5523 48 37 48H35H13H11C10.4477 48 10 47.5523 10 47V45V3V1ZM15 16.5C14.4477 16.5 14 16.0523 14 15.5V12.5C14 11.9477 14.4477 11.5 15 11.5C15.5523 11.5 16 11.9477 16 12.5V15.5C16 16.0523 15.5523 16.5 15 16.5ZM15 23C14.4477 23 14 23.4477 14 24V30C14 30.5523 14.4477 31 15 31C15.5523 31 16 30.5523 16 30V24C16 23.4477 15.5523 23 15 23Z" fill="#1C1814"/>
</svg>
