<svg width="48" height="48" viewBox="0 0 48 48" fill="none" xmlns="http://www.w3.org/2000/svg">
<path d="M11.5 8.5H24L41.5 10L43.5 13L38.5 34.5L41.5 44V45.5H8C7.2 45.5 6.66667 44.8333 6.5 44.5L9 34.5L5 15.5V11L11.5 8.5Z" fill="white"/>
<path fill-rule="evenodd" clip-rule="evenodd" d="M12.0449 6.5C11.9908 6.5 11.9367 6.50293 11.8828 6.50878C10.276 6.6834 7.8741 7.20576 5.92402 8.26532C4.94524 8.79713 3.97992 9.51808 3.32044 10.4947C2.63122 11.5153 2.3207 12.7556 2.60517 14.1467C3.37953 17.9333 5.78819 30.019 6.989 36.0574C7.00514 36.1385 7.0003 36.2195 6.97603 36.2986L4.5318 44.2669C4.0388 45.874 5.24077 47.5 6.92188 47.5H24.0001H41.0783C42.7594 47.5 43.9613 45.874 43.4683 44.2669L41.0241 36.2986C40.9999 36.2195 40.995 36.1385 41.0111 36.0574C42.212 30.019 44.6206 17.9333 45.395 14.1467C45.6794 12.7556 45.3689 11.5153 44.6797 10.4947C44.0202 9.51808 43.0549 8.79713 42.0761 8.26532C40.3178 7.30995 38.1922 6.79132 36.6132 6.57056C36.3397 6.53232 36.0931 6.73133 36.0633 7.00585L35.8472 8.99415C35.8174 9.26867 36.0156 9.51468 36.2888 9.5546C37.6216 9.74934 39.3268 10.1857 40.6439 10.9013C41.3837 11.3033 41.9003 11.7394 42.1935 12.1736C42.4569 12.5637 42.5698 12.988 42.4558 13.5456C41.6578 17.4481 39.1329 30.1198 37.971 35.9639C37.9226 36.2074 37.9354 36.459 38.0082 36.6963L40.2036 43.8534C40.3022 44.1748 40.0618 44.5 39.7255 44.5H24.0001H8.27461C7.93839 44.5 7.698 44.1748 7.7966 43.8534L9.99199 36.6963C10.0648 36.459 10.0775 36.2074 10.0291 35.9639C8.86726 30.1198 6.34239 17.4481 5.54435 13.5456C5.43032 12.988 5.54321 12.5637 5.80667 12.1736C6.09987 11.7394 6.6165 11.3033 7.35628 10.9013C8.81539 10.1086 10.7508 9.65849 12.1285 9.5H34.5001C34.7762 9.5 35.0001 9.27614 35.0001 9V7C35.0001 6.72386 34.7762 6.5 34.5001 6.5H12.0449Z" fill="#1C1814"/>
<path d="M34 3.5H14.5L11 9L21 27L19 30.5H25.5L37 9L34 3.5Z" fill="white"/>
<path d="M14.5 3.5H34L37 9L25.5 30.5H19L21 27L11 9L14.5 3.5ZM14.5 3.5L24.5 21" stroke="#1C1814" stroke-width="3" stroke-linejoin="round"/>
<path d="M21 27L31.1316 7.86364M33.5 3.5L31.1316 7.86364M17.5 7.86364H31.1316" stroke="#1C1814" stroke-width="3" stroke-linejoin="round"/>
<rect x="5.5" y="30.5" width="37" height="5" rx="1.5" fill="white" stroke="#1C1814" stroke-width="3"/>
</svg>
