<svg width="48" height="48" viewBox="0 0 48 48" fill="none" xmlns="http://www.w3.org/2000/svg">
<path fill-rule="evenodd" clip-rule="evenodd" d="M12 3H11C8.027 3 5.55904 5.16229 5.08296 8H17.917C17.441 5.16229 14.973 3 12 3ZM11 0C6.36745 0 2.55237 3.50005 2.05493 8H2C0.895431 8 0 8.89543 0 10V22C0 23.1046 0.89543 24 2 24H2.11728L2.98042 46.0781C3.02238 47.1515 3.90472 48 4.97889 48H18.0211C19.0953 48 19.9776 47.1515 20.0196 46.0781L20.8827 24H21C22.1046 24 23 23.1046 23 22V10C23 8.89543 22.1046 8 21 8H20.9451C20.4476 3.50005 16.6326 0 12 0H11ZM3 21V11H5H18H20V21H18.9203H4.07972H3ZM5.94056 45L5.11958 24H17.8804L17.0594 45H5.94056ZM37 3H36C33.027 3 30.559 5.16229 30.083 8H42.917C42.441 5.16229 39.973 3 37 3ZM45.9451 8C45.4476 3.50005 41.6326 0 37 0H36C31.3674 0 27.5524 3.50005 27.0549 8H27C25.8954 8 25 8.89543 25 10V22C25 23.1046 25.8954 24 27 24H27.1173L27.9804 46.0781C28.0224 47.1515 28.9047 48 29.9789 48H43.0211C44.0953 48 44.9776 47.1515 45.0196 46.0781L45.8827 24H46C47.1046 24 48 23.1046 48 22V10C48 8.89543 47.1046 8 46 8H45.9451ZM45 11H43H30H28V21H29.0797H43.9203H45V11ZM42.8804 24H30.1196L30.9406 45H42.0594L42.8804 24Z" fill="#1C1814"/>
</svg>
