<svg width="48" height="48" viewBox="0 0 48 48" fill="none" xmlns="http://www.w3.org/2000/svg">
<path fill-rule="evenodd" clip-rule="evenodd" d="M8.5 17C8.22386 17 8 17.2239 8 17.5V40.5C8 40.7761 8.22386 41 8.5 41H13.5C13.7761 41 14 40.7761 14 40.5V17.5C14 17.2239 13.7761 17 13.5 17H8.5ZM13.5 14C13.7761 14 14 13.7761 14 13.5V12V12C14 11.8964 13.9948 11.7941 13.9845 11.6933C13.8904 10.767 13.3749 9.96528 12.6328 9.48288L12.6248 9.47765C12.1565 9.17541 11.5988 9 11 9C9.34315 9 8 10.3431 8 12V13.5C8 13.7761 8.22386 14 8.5 14H13.5ZM16.5756 9.77914C16.433 9.42143 16.6791 9 17.0642 9H39C40.6569 9 42 10.3431 42 12V15.5V35.5C42 35.7761 41.7761 36 41.5 36H27.5C26.6716 36 26 36.6716 26 37.5C26 38.3284 26.6716 39 27.5 39H41.5C41.7761 39 42 39.2239 42 39.5V41V43V44V44.5C42 44.7761 41.7761 45 41.5 45H17.5C17.2239 45 17 44.7761 17 44.5V44V41V39.5C17 39.2239 17.2239 39 17.5 39H22.5C23.3284 39 24 38.3284 24 37.5C24 36.6716 23.3284 36 22.5 36H17.5C17.2239 36 17 35.7761 17 35.5V12V12C17 11.3833 16.907 10.7884 16.7342 10.2284C16.6871 10.076 16.6342 9.92613 16.5756 9.77914ZM45 44V46V47C45 47.5523 44.5523 48 44 48H16.0101L16 48H15C14.4477 48 14 47.5523 14 47V45V44.5C14 44.2239 13.7761 44 13.5 44H8H5.5C5.22386 44 5 43.7761 5 43.5V41V17.5C5 17.2239 4.77614 17 4.5 17H1.5C0.671573 17 0 16.3284 0 15.5C0 14.6716 0.671573 14 1.5 14H4.5C4.77614 14 5 13.7761 5 13.5V12C5 8.68629 7.68629 6 11 6H39C42.3137 6 45 8.68629 45 12V13.5C45 13.7761 45.2239 14 45.5 14H46.5C47.3284 14 48 14.6716 48 15.5C48 16.3284 47.3284 17 46.5 17H45.5C45.2239 17 45 17.2239 45 17.5V37.5V41V43V44Z" fill="#1C1814"/>
</svg>
