<svg width="48" height="48" viewBox="0 0 48 48" fill="none" xmlns="http://www.w3.org/2000/svg">
<path fill-rule="evenodd" clip-rule="evenodd" d="M13.8574 18.3762L14.7598 3.93762C14.7927 3.41059 15.2298 3 15.7579 3H32.2422C32.7703 3 33.2074 3.41059 33.2403 3.93762L34.1427 18.3762C34.5025 24.1332 29.9304 29 24.1622 29H23.8379C18.0697 29 13.4976 24.1332 13.8574 18.3762ZM11.9414 0.937622C11.9744 0.410587 12.4114 0 12.9395 0H35.0606C35.5887 0 36.0257 0.410588 36.0587 0.937623L37.1369 18.1891C37.5469 24.7503 33.0292 30.4221 26.8561 31.7211C26.3685 31.8237 26.0001 32.2418 26.0001 32.7401V34V44C26.0001 44.5523 26.4478 45 27 45H30H32C32.5523 45 33 45.4477 33 46V47C33 47.5523 32.5523 48 32 48H30H26.0001H25.0001H23.0001H22.0001H18H16C15.4478 48 15 47.5523 15 47V46C15 45.4477 15.4478 45 16 45H18H21.0001C21.5523 45 22.0001 44.5523 22.0001 44V34V32.7401C22.0001 32.2418 21.6316 31.8237 21.144 31.7211C14.9709 30.4221 10.4532 24.7503 10.8632 18.1891L11.9414 0.937622ZM33.0765 16.917C33.0333 16.3987 32.6 16 32.0799 16H15.9202C15.4001 16 14.9668 16.3987 14.9236 16.917L14.8123 18.2526C14.3751 23.4998 18.5159 28 23.7812 28H24.2189C29.4842 28 33.625 23.4998 33.1878 18.2526L33.0765 16.917Z" fill="#1C1814"/>
</svg>
