<svg width="48" height="48" viewBox="0 0 48 48" fill="none" xmlns="http://www.w3.org/2000/svg">
<path fill-rule="evenodd" clip-rule="evenodd" d="M37 3H11C9.89543 3 9 3.89543 9 5C9 6.10457 9.89543 7 11 7H37C38.1046 7 39 6.10457 39 5C39 3.89543 38.1046 3 37 3ZM11 0C8.23858 0 6 2.23858 6 5C6 7.76142 8.23858 10 11 10H19.5084C19.5429 10.6821 19.69 11.4463 20.0399 12.1602C20.3436 12.7797 20.813 13.384 21.5091 13.8275C21.9521 14.1098 22.4515 14.3043 23 14.409V15.6802L18.8039 16.5194C18.3537 16.6095 18.0227 16.9944 18.0011 17.453C17.9795 17.9116 18.2729 18.3259 18.7127 18.4578L25.5199 20.5L18.7127 22.5422C18.2897 22.6691 18 23.0584 18 23.5C18 23.9416 18.2897 24.3309 18.7127 24.4578L25.5199 26.5L18.7127 28.5422C18.2897 28.6691 18 29.0584 18 29.5C18 29.9416 18.2897 30.3309 18.7127 30.4578L25.5199 32.5L18.7127 34.5422C18.2897 34.6691 18 35.0584 18 35.5C18 35.9416 18.2897 36.3309 18.7127 36.4578L26.2974 38.7333L22.5528 40.6056C22.214 40.775 22 41.1212 22 41.5V47C22 47.5523 22.4477 48 23 48C23.5523 48 24 47.5523 24 47V42.118L29.4472 39.3944C29.8139 39.2111 30.0316 38.8225 29.9963 38.414C29.961 38.0055 29.68 37.66 29.2873 37.5422L22.4801 35.5L29.2873 33.4578C29.7103 33.3309 30 32.9416 30 32.5C30 32.0584 29.7103 31.6691 29.2873 31.5422L22.4801 29.5L29.2873 27.4578C29.7103 27.3309 30 26.9416 30 26.5C30 26.0584 29.7103 25.6691 29.2873 25.5422L22.4801 23.5L29.2873 21.4578C29.7103 21.3309 30 20.9416 30 20.5C30 20.0584 29.7103 19.6691 29.2873 19.5422L23.1277 17.6943L24.1961 17.4806C24.6635 17.3871 25 16.9767 25 16.5V14.409C25.5485 14.3043 26.0479 14.1098 26.4909 13.8275C27.187 13.384 27.6564 12.7797 27.9601 12.1602C28.31 11.4463 28.4571 10.6821 28.4916 10H37C39.7614 10 42 7.76142 42 5C42 2.23858 39.7614 0 37 0H11ZM25.4844 10H22.5156C22.5443 10.2962 22.6132 10.5939 22.7337 10.8398C22.8385 11.0536 22.9671 11.1993 23.1211 11.2975C23.2718 11.3935 23.5343 11.5 24 11.5C24.4656 11.5 24.7282 11.3935 24.8789 11.2975C25.0329 11.1993 25.1615 11.0536 25.2663 10.8398C25.3868 10.5939 25.4557 10.2962 25.4844 10Z" fill="#1C1814"/>
</svg>
