<?xml version="1.0" encoding="UTF-8"?>
<svg id="Layer_2" data-name="Layer 2" xmlns="http://www.w3.org/2000/svg" viewBox="0 0 183.98 183.47">
  <defs>
    <style>
      .cls-1 {
        stroke-linecap: round;
      }

      .cls-1, .cls-2 {
        fill: none;
        stroke: #1c1814;
        stroke-miterlimit: 10;
        stroke-width: 3px;
      }
    </style>
  </defs>
  <g id="Layer_2-2" data-name="Layer 2">
    <path class="cls-2" d="m71.83,3.7s2.03,5.09,0,10.77c0,0-2.03,7.22-1.17,12.03,0,0,.45,3.34.73,6.47.32,3.55,1.71,6.91,3.97,9.65,6.73,8.18,21.87,23.84,40.67,25.99,0,0,9.11,1.03,13.23-1.03,0,0,4.07-1.36,7.88-.45,1,.24,1.99.46,3.01.57,2.94.3,9.38.83,16.44-1.83,0,0,16.48-4.65,21.13-17.88"/>
    <path class="cls-1" d="m33.02,52.28s12.65,27.3,19.63,35.77c.98,1.19,1.87,2.44,2.71,3.73,2.11,3.23,6.07,8.3,9.37,17.99,0,0,3.65,9.35,6.64,12.76.96,1.1,1.77,2.32,2.54,3.56,1.5,2.46,3.71,6.19,5.52,9.71,1.09,2.13,2.39,4.14,3.87,6.03,6.97,8.85,26.9,30.84,54.58,33.22"/>
    <path class="cls-2" d="m4.24,99.54s6.09,8.25,7.81,17.36c0,0,.91,8.99,4.75,14.63.67.99,1.19,2.07,1.59,3.2.79,2.2,1.87,5.66,2,8.42.09,1.95.39,3.39.99,5.46.79,2.75,3.17,5.9,5.62,7.3,0,0,7.71,6.51,11.34,14.09.69,1.37,6.23,7.58,11.54,9.89"/>
    <path class="cls-2" d="m53.1,88.59s11.02-11.73,18.59-14.31c0,0,7.75-2.44,12.57-4.19,2.53-.92,5.17-1.46,7.86-1.57,4.34-.17,10.92-.08,16.7,1.47,0,0,10.14,2.92,14.27,2.92,0,0,8.59.17,7.56,8.94,0,0-1.55,12.55.09,15.3,0,0,1.12,7.22,4.21,12.2,0,0,4.64,8.25,6.36,22v16.84s-.69,4.64,0,7.91c0,0,4.81,14.94,0,18.47"/>
    <path class="cls-1" d="m87.5,103.84s-1.55,14.87,1.55,22.94c0,0,4.23,15.6,6.93,28.51"/>
    <path class="cls-2" d="m132.15,102.96s-1.72-14.38,5.24-20.56c0,0,2.16-1.7,9.15-8.64,0,0,9.41-6.19,16.89-2.06,0,0,5.93,3.87,7.35,13.79,0,0,4.38,15.08,4.64,46.02,0,0,.52,19.59-2.58,31.58,0,0-1.27,7.56-6.82,8.87"/>
    <path class="cls-2" d="m8.75,16.51c4.66-.28,13.51-1.63,20.42-7.52.06-.05.1-.09.15-.15.84-.94,10.26-10.73,35.41-6.09,0,0,18.38,2.57,27.44,3.34,0,0,29.51,1.93,41.42-1.93,0,0,15.35-6.21,36.64,3.29.37.16.71.38,1.01.66.95.9,2.6,3.17,2.08,7.84,0,0-.55,8.85,2.41,14.41.14.25.3.49.45.74.71,1.11,2.94,5.31,1.66,12.79-.06.36-.11.73-.12,1.09-.07,1.78-.12,7.14,1.52,12.65,0,0,3.24,7.82,0,21.75-.38,1.62-.52,3.28-.43,4.95.17,3.16.65,8.55,2.04,14.23,1.08,4.43,1.58,8.98,1.62,13.54.1,11.04-.49,30.36-5.09,45.88-.32,1.08-.59,2.17-.74,3.28-.38,2.89-1.96,9.72-8.34,10.53,0,0-35.04,2.74-38.84,5.31,0,0-7.44,3.57-16.96,1.26,0,0-7.64-2.37-24.98,1.03,0,0-24.57,4.3-33.2,1.82l-34.09-9.93s-5.55-1.67-7.52-10.44c-.05-.24-.13-.48-.23-.71-.58-1.36-2.91-6.03-6.41-8.19,0,0-4.32-2.22-3.45-11.12,0,0,.61-5.62-.43-13.15,0,0-2.16-8.76,1.12-22.28,0,0,4.49-21.74,1.04-49.97,0,0-2.39-14.76-.69-27.13,0,0,.49-4.65,1.1-8.21.33-1.96,1.99-3.44,3.99-3.56Z"/>
  </g>
</svg>