<svg width="16" height="16" viewBox="0 0 16 16" fill="none" xmlns="http://www.w3.org/2000/svg">
<path fill-rule="evenodd" clip-rule="evenodd" d="M10.6602 11.246C11.4817 10.2831 12 8.98351 12 7.5C12 4.33023 9.6337 2 7 2C4.3663 2 2 4.33023 2 7.5C2 10.6698 4.3663 13 7 13C7.72919 13 8.43787 12.8214 9.08152 12.4958L6.99998 10.4142L8.41419 9.00001L10.6602 11.246ZM12.0773 12.6631C13.2689 11.3183 14 9.50065 14 7.5C14 3.35786 10.866 0 7 0C3.13401 0 0 3.35786 0 7.5C0 11.6421 3.13401 15 7 15C8.29598 15 9.5097 14.6227 10.5507 13.9649L11.9593 15.3736L13.3735 13.9594L12.0773 12.6631ZM16 15C16 15.5523 15.5523 16 15 16C14.4477 16 14 15.5523 14 15C14 14.4477 14.4477 14 15 14C15.5523 14 16 14.4477 16 15Z" fill="#1C1814"/>
</svg>
